<svg id="visual" viewBox="0 0 900 600" width="900" height="600" xmlns="http://www.w3.org/2000/svg" xmlns:xlink="http://www.w3.org/1999/xlink" version="1.1"><g stroke-width="1" stroke-linejoin="bevel"><path d="M382 285L327 337L421 387Z" fill="#003970" stroke="#003970"></path><path d="M421 387L467 369L382 285Z" fill="#297ea6" stroke="#297ea6"></path><path d="M327 337L331 424L421 387Z" fill="#00447a" stroke="#00447a"></path><path d="M421 387L471 525L467 369Z" fill="#1d729e" stroke="#1d729e"></path><path d="M331 424L370 461L421 387Z" fill="#020c45" stroke="#020c45"></path><path d="M585 391L515 331L467 369Z" fill="#297ea6" stroke="#297ea6"></path><path d="M467 369L515 331L382 285Z" fill="#014f84" stroke="#014f84"></path><path d="M439 163L302 219L382 285Z" fill="#001850" stroke="#001850"></path><path d="M382 285L302 219L327 337Z" fill="#1d729e" stroke="#1d729e"></path><path d="M327 337L190 416L331 424Z" fill="#297ea6" stroke="#297ea6"></path><path d="M302 219L237 272L327 337Z" fill="#020c45" stroke="#020c45"></path><path d="M515 331L470 191L382 285Z" fill="#297ea6" stroke="#297ea6"></path><path d="M470 191L439 163L382 285Z" fill="#297ea6" stroke="#297ea6"></path><path d="M190 416L315 527L331 424Z" fill="#00235b" stroke="#00235b"></path><path d="M331 424L315 527L370 461Z" fill="#00447a" stroke="#00447a"></path><path d="M370 461L471 525L421 387Z" fill="#297ea6" stroke="#297ea6"></path><path d="M376 600L471 525L370 461Z" fill="#00235b" stroke="#00235b"></path><path d="M471 525L585 391L467 369Z" fill="#003970" stroke="#003970"></path><path d="M515 331L610 235L470 191Z" fill="#020c45" stroke="#020c45"></path><path d="M237 272L190 416L327 337Z" fill="#00235b" stroke="#00235b"></path><path d="M585 391L619 338L515 331Z" fill="#003970" stroke="#003970"></path><path d="M231 102L192 187L302 219Z" fill="#002e66" stroke="#002e66"></path><path d="M302 219L192 187L237 272Z" fill="#020c45" stroke="#020c45"></path><path d="M237 272L125 274L190 416Z" fill="#003970" stroke="#003970"></path><path d="M619 338L610 235L515 331Z" fill="#297ea6" stroke="#297ea6"></path><path d="M517 86L419 64L439 163Z" fill="#002e66" stroke="#002e66"></path><path d="M315 527L376 600L370 461Z" fill="#014f84" stroke="#014f84"></path><path d="M321 600L376 600L315 527Z" fill="#002e66" stroke="#002e66"></path><path d="M502 600L570 525L471 525Z" fill="#001850" stroke="#001850"></path><path d="M471 525L570 525L585 391Z" fill="#00447a" stroke="#00447a"></path><path d="M585 391L706 430L619 338Z" fill="#020c45" stroke="#020c45"></path><path d="M162 600L321 600L315 527Z" fill="#020c45" stroke="#020c45"></path><path d="M118 403L164 492L190 416Z" fill="#001850" stroke="#001850"></path><path d="M190 416L164 492L315 527Z" fill="#297ea6" stroke="#297ea6"></path><path d="M192 187L125 274L237 272Z" fill="#1d729e" stroke="#1d729e"></path><path d="M439 163L288 92L302 219Z" fill="#1d729e" stroke="#1d729e"></path><path d="M419 64L288 92L439 163Z" fill="#126796" stroke="#126796"></path><path d="M125 274L118 403L190 416Z" fill="#001850" stroke="#001850"></path><path d="M517 86L439 163L470 191Z" fill="#1d729e" stroke="#1d729e"></path><path d="M376 600L502 600L471 525Z" fill="#020c45" stroke="#020c45"></path><path d="M277 0L231 102L288 92Z" fill="#014f84" stroke="#014f84"></path><path d="M288 92L231 102L302 219Z" fill="#00235b" stroke="#00235b"></path><path d="M192 187L122 205L125 274Z" fill="#00447a" stroke="#00447a"></path><path d="M610 235L517 86L470 191Z" fill="#003970" stroke="#003970"></path><path d="M82 93L122 205L192 187Z" fill="#297ea6" stroke="#297ea6"></path><path d="M125 274L0 373L118 403Z" fill="#001850" stroke="#001850"></path><path d="M502 600L566 600L570 525Z" fill="#075b8d" stroke="#075b8d"></path><path d="M570 525L706 430L585 391Z" fill="#1d729e" stroke="#1d729e"></path><path d="M0 469L105 496L118 403Z" fill="#075b8d" stroke="#075b8d"></path><path d="M118 403L105 496L164 492Z" fill="#1d729e" stroke="#1d729e"></path><path d="M164 492L162 600L315 527Z" fill="#020c45" stroke="#020c45"></path><path d="M727 499L706 430L570 525Z" fill="#1d729e" stroke="#1d729e"></path><path d="M619 338L726 296L610 235Z" fill="#002e66" stroke="#002e66"></path><path d="M105 496L162 600L164 492Z" fill="#297ea6" stroke="#297ea6"></path><path d="M530 0L385 0L419 64Z" fill="#003970" stroke="#003970"></path><path d="M419 64L385 0L288 92Z" fill="#297ea6" stroke="#297ea6"></path><path d="M706 430L726 296L619 338Z" fill="#1d729e" stroke="#1d729e"></path><path d="M610 235L633 92L517 86Z" fill="#014f84" stroke="#014f84"></path><path d="M706 204L660 127L610 235Z" fill="#126796" stroke="#126796"></path><path d="M517 86L530 0L419 64Z" fill="#00235b" stroke="#00235b"></path><path d="M726 296L706 204L610 235Z" fill="#020c45" stroke="#020c45"></path><path d="M660 127L633 92L610 235Z" fill="#014f84" stroke="#014f84"></path><path d="M385 0L277 0L288 92Z" fill="#002e66" stroke="#002e66"></path><path d="M231 102L82 93L192 187Z" fill="#014f84" stroke="#014f84"></path><path d="M633 92L530 0L517 86Z" fill="#00235b" stroke="#00235b"></path><path d="M729 600L727 499L570 525Z" fill="#1d729e" stroke="#1d729e"></path><path d="M706 430L771 394L726 296Z" fill="#002e66" stroke="#002e66"></path><path d="M277 0L210 0L231 102Z" fill="#014f84" stroke="#014f84"></path><path d="M0 297L0 373L125 274Z" fill="#075b8d" stroke="#075b8d"></path><path d="M105 496L61 600L162 600Z" fill="#075b8d" stroke="#075b8d"></path><path d="M0 297L125 274L122 205Z" fill="#00235b" stroke="#00235b"></path><path d="M0 182L0 297L122 205Z" fill="#00447a" stroke="#00447a"></path><path d="M783 468L771 394L706 430Z" fill="#020c45" stroke="#020c45"></path><path d="M726 296L777 230L706 204Z" fill="#126796" stroke="#126796"></path><path d="M127 0L82 93L231 102Z" fill="#014f84" stroke="#014f84"></path><path d="M0 373L0 469L118 403Z" fill="#126796" stroke="#126796"></path><path d="M682 0L633 0L633 92Z" fill="#020c45" stroke="#020c45"></path><path d="M706 204L783 72L660 127Z" fill="#001850" stroke="#001850"></path><path d="M837 277L777 230L726 296Z" fill="#020c45" stroke="#020c45"></path><path d="M0 469L61 600L105 496Z" fill="#003970" stroke="#003970"></path><path d="M82 93L0 182L122 205Z" fill="#001850" stroke="#001850"></path><path d="M789 600L783 468L727 499Z" fill="#002e66" stroke="#002e66"></path><path d="M727 499L783 468L706 430Z" fill="#1d729e" stroke="#1d729e"></path><path d="M771 394L837 277L726 296Z" fill="#075b8d" stroke="#075b8d"></path><path d="M682 0L633 92L660 127Z" fill="#297ea6" stroke="#297ea6"></path><path d="M633 92L633 0L530 0Z" fill="#020c45" stroke="#020c45"></path><path d="M210 0L127 0L231 102Z" fill="#002e66" stroke="#002e66"></path><path d="M82 93L0 104L0 182Z" fill="#014f84" stroke="#014f84"></path><path d="M566 600L729 600L570 525Z" fill="#126796" stroke="#126796"></path><path d="M0 0L0 104L82 93Z" fill="#014f84" stroke="#014f84"></path><path d="M783 72L682 0L660 127Z" fill="#1d729e" stroke="#1d729e"></path><path d="M900 294L837 277L900 417Z" fill="#00447a" stroke="#00447a"></path><path d="M777 230L783 72L706 204Z" fill="#126796" stroke="#126796"></path><path d="M0 469L0 600L61 600Z" fill="#126796" stroke="#126796"></path><path d="M729 600L789 600L727 499Z" fill="#297ea6" stroke="#297ea6"></path><path d="M900 417L837 277L771 394Z" fill="#014f84" stroke="#014f84"></path><path d="M900 96L783 72L777 230Z" fill="#003970" stroke="#003970"></path><path d="M783 72L763 0L682 0Z" fill="#297ea6" stroke="#297ea6"></path><path d="M127 0L0 0L82 93Z" fill="#001850" stroke="#001850"></path><path d="M900 417L771 394L783 468Z" fill="#126796" stroke="#126796"></path><path d="M837 277L900 215L777 230Z" fill="#075b8d" stroke="#075b8d"></path><path d="M783 72L900 0L763 0Z" fill="#003970" stroke="#003970"></path><path d="M900 496L900 417L783 468Z" fill="#002e66" stroke="#002e66"></path><path d="M900 294L900 215L837 277Z" fill="#297ea6" stroke="#297ea6"></path><path d="M789 600L900 496L783 468Z" fill="#297ea6" stroke="#297ea6"></path><path d="M900 215L900 96L777 230Z" fill="#014f84" stroke="#014f84"></path><path d="M789 600L900 600L900 496Z" fill="#00447a" stroke="#00447a"></path><path d="M900 96L900 0L783 72Z" fill="#003970" stroke="#003970"></path></g></svg>